<svg xmlns="http://www.w3.org/2000/svg" xmlns:xlink="http://www.w3.org/1999/xlink" height="802.414" version="1" viewBox="0 0 58.885305 212.30535" width="222.559"><defs><linearGradient id="a"><stop offset="0" stop-color="green"/><stop offset="1" stop-color="olive"/></linearGradient><linearGradient gradientUnits="userSpaceOnUse" id="b" x1="-238.045" x2="-.149" xlink:href="#a" y1="30.535" y2="30.535"/></defs><g transform="matrix(0 -.89187 1.12124 0 0 0)" style="line-height:125%;-inkscape-font-specification:'Abril Fatface, Normal';text-align:start" font-weight="400" font-size="42.888" font-family="Abril Fatface" letter-spacing="0" word-spacing="0" fill="url(#b)"><path d="M-226.294 41.364q2.145 0 3.775-1.158 1.672-1.158 1.672-3.474 0-2.359-1.801-3.603-1.759-1.243-5.06-2.144-3.26-.944-4.762-1.63-1.458-.686-2.787-1.801-2.66-2.23-2.66-6.905 0-3.817 2.703-6.562 2.744-2.745 7.462-2.745 2.273 0 4.718.686 2.487.644 3.088.644.6 0 1.072-.858h.472l.3 8.663h-.686q-2.059-3.731-4.332-5.961-2.23-2.273-4.89-2.273-2.615 0-4.074 1.244-1.458 1.2-1.458 3.259 0 2.016 1.716 3.13 1.758 1.073 4.289 1.76 2.53.686 3.302.943.815.257 1.973.729 1.2.429 1.93.943.772.472 1.587 1.244.858.73 1.33 1.63 1.157 2.059 1.157 4.89 0 4.631-2.916 7.462-2.874 2.788-7.591 2.788-2.445 0-5.619-.644-3.13-.643-3.474-.643-.6 0-1.158 1.287h-.6l-.429-10.208h.73q1.886 3.731 4.803 6.52 2.959 2.787 6.218 2.787zM-202.808 42.265q-5.532 0-8.32-2.831-2.745-2.874-2.745-7.934 0-5.104 3.088-7.806 3.131-2.702 7.935-2.702 9.735 0 9.35 9.779h-12.095v1.672q0 4.203 1.072 6.348 1.072 2.144 3.731 2.144 4.975 0 6.52-5.318l.771.129q-.815 3.088-2.96 4.803-2.1 1.716-6.347 1.716zm-2.744-12.352h4.417V27.81q0-3.474-.429-4.718-.386-1.286-1.63-1.286-1.2 0-1.8 1.372-.558 1.33-.558 4.632v2.102zM-185.668 18.462q-2.273 0-3.26-1.158-.943-1.158-.943-2.874 0-1.715 1.029-2.83 1.072-1.116 3.217-1.116 2.144 0 3.26 1.03 1.114.986 1.114 2.873 0 1.844-1.072 2.96-1.072 1.115-3.345 1.115zm-6.476 2.959h10.507v19.643h2.402v.772h-12.738v-.772h2.359V22.193h-2.53v-.772zM-176.258 35.703v-13.51h-2.36v-.772h2.36v-5.533l7.977-1.973v7.506h5.575v.772h-5.575v14.453q0 2.016.386 2.96.429.943 1.715.943 1.287 0 2.23-1.287.987-1.286 1.287-3.516l.73.085q-.344 2.96-1.888 4.718-1.544 1.716-5.103 1.716-3.56 0-5.447-1.416-1.887-1.415-1.887-5.146zM-150.202 42.265q-5.533 0-8.32-2.831-2.745-2.874-2.745-7.934 0-5.104 3.087-7.806 3.131-2.702 7.935-2.702 9.735 0 9.35 9.779h-12.095v1.672q0 4.203 1.072 6.348 1.072 2.144 3.731 2.144 4.976 0 6.52-5.318l.772.129q-.815 3.088-2.96 4.803-2.101 1.716-6.347 1.716zm-2.745-12.352h4.417V27.81q0-3.474-.429-4.718-.386-1.286-1.63-1.286-1.2 0-1.8 1.372-.558 1.33-.558 4.632v2.102zM-139.282 21.42h10.336v3.947q.686-1.973 2.102-3.174 1.415-1.201 4.289-1.201 6.647 0 6.647 7.162v12.91h2.402v.772h-12.137v-.772h1.758V27.125q0-2.573-.343-3.302-.343-.772-1.244-.772-1.372 0-2.444 1.8-1.03 1.802-1.03 4.376v11.837h1.844v.772h-12.18v-.772h2.359V22.193h-2.359v-.772zM-113.153 9.67h10.508v31.394h2.402v.772h-12.738v-.772h2.359V10.44h-2.53V9.67zM-85.558 33.387V29.74q0-4.16-.472-6.047-.429-1.93-2.059-1.93-.943 0-1.544.558-.557.514-.814 1.758-.386 1.93-.386 5.876V33.3q0 4.675.257 5.618.3.944.6 1.544.472 1.03 1.845 1.03 1.672 0 2.187-1.93.386-1.373.386-6.176zm-2.66 8.878q-5.36 0-8.105-2.745t-2.745-7.849q0-5.146 2.916-7.891 2.96-2.788 8.278-2.788 5.318 0 7.934 2.573 2.616 2.53 2.616 7.763 0 10.937-10.893 10.937zM-58.926 19.19l1.201-.728q.257-1.33-1.03-1.33-1.843 0-1.843 2.83 0 1.116.3 2.574 3.26 2.187 3.26 5.618 0 3.389-2.36 5.276-2.358 1.887-6.39 1.887-1.673 0-3.474-.343-1.887 1.2-1.887 1.8 0 .601 2.745.601h4.375q9.735 0 9.735 6.991 0 3.774-2.96 5.962-2.916 2.23-9.134 2.23-10.594 0-10.594-4.59 0-2.487 3.303-3.43l2.573 1.158q-.343 1.243-.343 2.359 0 3.688 5.49 3.688 3.345 0 5.146-1.244 1.801-1.244 1.801-3.088t-1.115-2.487q-1.072-.6-4.331-.6h-4.16q-3.474 0-4.976-1.159-1.5-1.158-1.5-2.83 0-1.716 1.072-2.831 1.072-1.158 3.817-2.83-4.975-1.416-4.975-6.52 0-3.216 2.316-5.19 2.315-1.972 6.947-1.972 2.788 0 4.761 1.072-.257-1.158-.257-2.101 0-2.402 1.286-3.474 1.287-1.073 2.874-1.073 1.587 0 2.53.858.987.815.987 2.273 0 1.459-.772 2.188-.772.686-1.887.686-1.073 0-1.802-.558-.686-.6-.729-1.672zm-9.092 8.02v2.317q0 2.873.472 3.903.514 1.029 1.5 1.029 1.03 0 1.459-.987.472-1.029.472-4.16v-2.101q0-3.346-.43-4.375-.428-1.072-1.457-1.072-.987 0-1.501 1.115-.515 1.072-.515 4.332z"/><path d="M-41.162 33.387V29.74q0-4.16-.472-6.047-.429-1.93-2.058-1.93-.944 0-1.544.558-.558.514-.815 1.758-.386 1.93-.386 5.876V33.3q0 4.675.257 5.618.3.944.6 1.544.472 1.03 1.845 1.03 1.672 0 2.187-1.93.386-1.373.386-6.176zm-2.659 8.878q-5.361 0-8.106-2.745t-2.745-7.849q0-5.146 2.917-7.891 2.959-2.788 8.277-2.788t7.934 2.573q2.617 2.53 2.617 7.763 0 10.937-10.894 10.937zM-18.832 28.069q-1.844 0-2.788-1.073-.9-1.115-.9-2.659 0-1.587.943-2.659.987-1.072 2.745-1.072 1.759 0 2.788.9 1.03.901 1.03 2.703 0 1.8-.987 2.83-.944 1.03-2.83 1.03zm0 14.196q-1.844 0-2.788-1.073-.9-1.115-.9-2.659 0-1.587.943-2.659.987-1.072 2.745-1.072 1.759 0 2.788.9 1.03.901 1.03 2.703 0 1.801-.987 2.83-.944 1.03-2.83 1.03zM-3.494 14.988q1.63 2.916 2.488 6.347.857 3.431.857 7.763 0 4.289-1.5 8.75-1.502 4.46-4.718 7.547-3.217 3.131-7.549 3.26v-.858q2.445-.086 3.474-1.672 1.158-1.802 1.373-4.032.3-3.045.3-7.677V22.107q0-8.149-1.33-10.465-1.243-2.144-3.817-2.23v-.9q3.388.042 6.09 1.8 2.745 1.76 4.332 4.676z"/></g></svg>